<?xml version="1.0" encoding="UTF-8" standalone="no"?>
<!DOCTYPE svg PUBLIC "-//W3C//DTD SVG 1.1//EN"
 "http://www.w3.org/Graphics/SVG/1.1/DTD/svg11.dtd">
<!-- Generated by graphviz version 7.1.0 (20230121.1956)
 -->
<!-- Title: DIRE_NS::TypedTypeInfo&lt; T, UseDefaultCtorForInstantiate &gt; Pages: 1 -->
<svg width="616pt" height="86pt"
 viewBox="0.00 0.00 616.00 86.00" xmlns="http://www.w3.org/2000/svg" xmlns:xlink="http://www.w3.org/1999/xlink">
<g id="graph0" class="graph" transform="scale(1 1) rotate(0) translate(4 82)">
<title>DIRE_NS::TypedTypeInfo&lt; T, UseDefaultCtorForInstantiate &gt;</title>
<!-- Node1 -->
<g id="node1" class="node">
<title>Node1</title>
<g id="a_node1"><a xlink:title="The metadata type declared by DIRE_TYPE_INFO and DIRE_REFLECTABLE_INFO. Never use directly,...">
<polygon fill="#999999" stroke="#666666" points="608,-54 438,-54 438,-24 608,-24 608,-54"/>
<text text-anchor="start" x="446" y="-42" font-family="Helvetica,sans-Serif" font-size="10.00">DIRE_NS::TypedTypeInfo</text>
<text text-anchor="middle" x="523" y="-31" font-family="Helvetica,sans-Serif" font-size="10.00">&lt; T, UseDefaultCtorForInstantiate &gt;</text>
</a>
</g>
</g>
<!-- Node2 -->
<g id="node2" class="node">
<title>Node2</title>
<g id="a_node2"><a xlink:href="class_d_i_r_e___n_s_1_1_type_info.html" target="_top" xlink:title=" ">
<polygon fill="white" stroke="#bfbfbf" points="401,-48.5 301,-48.5 301,-29.5 401,-29.5 401,-48.5"/>
<text text-anchor="middle" x="351" y="-36.5" font-family="Helvetica,sans-Serif" font-size="10.00">DIRE_NS::TypeInfo</text>
</a>
</g>
</g>
<!-- Node2&#45;&gt;Node1 -->
<g id="edge1" class="edge">
<title>Node2&#45;&gt;Node1</title>
<path fill="none" stroke="#63b8ff" d="M412.49,-39C420.68,-39 429.19,-39 437.7,-39"/>
<polygon fill="#63b8ff" stroke="#63b8ff" points="412.68,-35.5 402.68,-39 412.68,-42.5 412.68,-35.5"/>
</g>
<!-- Node3 -->
<g id="node3" class="node">
<title>Node3</title>
<g id="a_node3"><a xlink:href="class_d_i_r_e___n_s_1_1_intrusive_linked_list.html" target="_top" xlink:title=" ">
<polygon fill="white" stroke="#666666" points="170,-78 0,-78 0,-48 170,-48 170,-78"/>
<text text-anchor="start" x="8" y="-66" font-family="Helvetica,sans-Serif" font-size="10.00">DIRE_NS::IntrusiveLinked</text>
<text text-anchor="middle" x="85" y="-55" font-family="Helvetica,sans-Serif" font-size="10.00">List&lt; DIRE_NS::PropertyTypeInfo &gt;</text>
</a>
</g>
</g>
<!-- Node3&#45;&gt;Node2 -->
<g id="edge2" class="edge">
<title>Node3&#45;&gt;Node2</title>
<path fill="none" stroke="#9a32cd" stroke-dasharray="5,2" d="M181.5,-54.32C221.89,-50.65 267.23,-46.52 300.7,-43.48"/>
<polygon fill="#9a32cd" stroke="#9a32cd" points="181.41,-50.81 171.76,-55.2 182.04,-57.78 181.41,-50.81"/>
<text text-anchor="middle" x="235.5" y="-56" font-family="Helvetica,sans-Serif" font-size="10.00"> myProperties</text>
</g>
<!-- Node4 -->
<g id="node4" class="node">
<title>Node4</title>
<g id="a_node4"><a xlink:href="class_d_i_r_e___n_s_1_1_intrusive_linked_list.html" target="_top" xlink:title=" ">
<polygon fill="white" stroke="#666666" points="160,-30 10,-30 10,0 160,0 160,-30"/>
<text text-anchor="start" x="18" y="-18" font-family="Helvetica,sans-Serif" font-size="10.00">DIRE_NS::IntrusiveLinked</text>
<text text-anchor="middle" x="85" y="-7" font-family="Helvetica,sans-Serif" font-size="10.00">List&lt; DIRE_NS::FunctionInfo &gt;</text>
</a>
</g>
</g>
<!-- Node4&#45;&gt;Node2 -->
<g id="edge3" class="edge">
<title>Node4&#45;&gt;Node2</title>
<path fill="none" stroke="#9a32cd" stroke-dasharray="5,2" d="M171.5,-20.43C206.15,-22.92 246.52,-26.16 283,-30 288.72,-30.6 294.7,-31.3 300.64,-32.04"/>
<polygon fill="#9a32cd" stroke="#9a32cd" points="172.19,-16.97 161.97,-19.76 171.7,-23.96 172.19,-16.97"/>
<text text-anchor="middle" x="235.5" y="-33" font-family="Helvetica,sans-Serif" font-size="10.00"> myMemberFunctions</text>
</g>
</g>
</svg>
