<?xml version="1.0" encoding="UTF-8" standalone="no"?>
<!DOCTYPE svg PUBLIC "-//W3C//DTD SVG 1.1//EN"
 "http://www.w3.org/Graphics/SVG/1.1/DTD/svg11.dtd">
<!-- Generated by graphviz version 7.1.0 (20230121.1956)
 -->
<!-- Title: DIRE_NS::IFunctionTypeInfo Pages: 1 -->
<svg width="151pt" height="148pt"
 viewBox="0.00 0.00 151.00 148.00" xmlns="http://www.w3.org/2000/svg" xmlns:xlink="http://www.w3.org/1999/xlink">
<g id="graph0" class="graph" transform="scale(1 1) rotate(0) translate(4 144)">
<title>DIRE_NS::IFunctionTypeInfo</title>
<!-- Node1 -->
<g id="node1" class="node">
<title>Node1</title>
<g id="a_node1"><a xlink:title="The base interface for storing class member function info. It provides the Invoke method that allows ...">
<polygon fill="#999999" stroke="#666666" points="141.5,-140 1.5,-140 1.5,-121 141.5,-121 141.5,-140"/>
<text text-anchor="middle" x="71.5" y="-128" font-family="Helvetica,sans-Serif" font-size="10.00">DIRE_NS::IFunctionTypeInfo</text>
</a>
</g>
</g>
<!-- Node2 -->
<g id="node2" class="node">
<title>Node2</title>
<g id="a_node2"><a xlink:href="class_d_i_r_e___n_s_1_1_function_info.html" target="_top" xlink:title="An abstract type that stores data and defines functions common to all types of function infos....">
<polygon fill="white" stroke="#666666" points="129.5,-85 13.5,-85 13.5,-66 129.5,-66 129.5,-85"/>
<text text-anchor="middle" x="71.5" y="-73" font-family="Helvetica,sans-Serif" font-size="10.00">DIRE_NS::FunctionInfo</text>
</a>
</g>
</g>
<!-- Node1&#45;&gt;Node2 -->
<g id="edge1" class="edge">
<title>Node1&#45;&gt;Node2</title>
<path fill="none" stroke="#8b1a1a" d="M71.5,-109.35C71.5,-101.1 71.5,-91.97 71.5,-85.44"/>
<polygon fill="#8b1a1a" stroke="#8b1a1a" points="68,-109.23 71.5,-119.23 75,-109.23 68,-109.23"/>
</g>
<!-- Node3 -->
<g id="node3" class="node">
<title>Node3</title>
<g id="a_node3"><a xlink:href="struct_d_i_r_e___n_s_1_1_typed_function_info_3_01_ret_07_class_1_1_5_08_07_args_8_8_8_08_4.html" target="_top" xlink:title="The class declared by the DIRE_FUNCTION and DIRE_TYPED_FUNCTION macros. Never use it directly,...">
<polygon fill="white" stroke="#666666" points="143,-30 0,-30 0,0 143,0 143,-30"/>
<text text-anchor="start" x="8" y="-18" font-family="Helvetica,sans-Serif" font-size="10.00">DIRE_NS::TypedFunctionInfo</text>
<text text-anchor="middle" x="71.5" y="-7" font-family="Helvetica,sans-Serif" font-size="10.00">&lt; Ret(Class::*)(Args...)&gt;</text>
</a>
</g>
</g>
<!-- Node2&#45;&gt;Node3 -->
<g id="edge2" class="edge">
<title>Node2&#45;&gt;Node3</title>
<path fill="none" stroke="#63b8ff" d="M71.5,-54.51C71.5,-46.49 71.5,-37.43 71.5,-30.11"/>
<polygon fill="#63b8ff" stroke="#63b8ff" points="68,-54.35 71.5,-64.35 75,-54.35 68,-54.35"/>
</g>
</g>
</svg>
