<?xml version="1.0" encoding="UTF-8" standalone="no"?>
<!DOCTYPE svg PUBLIC "-//W3C//DTD SVG 1.1//EN"
 "http://www.w3.org/Graphics/SVG/1.1/DTD/svg11.dtd">
<!-- Generated by graphviz version 2.43.0 (0)
 -->
<!-- Title: DIRE_NS::PropertyTypeInfo Pages: 1 -->
<svg width="193pt" height="162pt"
 viewBox="0.00 0.00 193.00 162.00" xmlns="http://www.w3.org/2000/svg" xmlns:xlink="http://www.w3.org/1999/xlink">
<g id="graph0" class="graph" transform="scale(1 1) rotate(0) translate(4 158)">
<title>DIRE_NS::PropertyTypeInfo</title>
<!-- Node1 -->
<g id="node1" class="node">
<title>Node1</title>
<g id="a_node1"><a xlink:title="The base class for Dire to store information of properties. Never use it directly: it is to be inheri...">
<polygon fill="#bfbfbf" stroke="black" points="19,-67.5 19,-86.5 166,-86.5 166,-67.5 19,-67.5"/>
<text text-anchor="middle" x="92.5" y="-74.5" font-family="Helvetica,sans-Serif" font-size="10.00">DIRE_NS::PropertyTypeInfo</text>
</a>
</g>
</g>
<!-- Node3 -->
<g id="node3" class="node">
<title>Node3</title>
<g id="a_node3"><a xlink:href="classDIRE__NS_1_1TypedProperty.html" target="_top" xlink:title="The property template declared by DIRE_PROPERTY. Never use this type directly, use the macro.">
<polygon fill="none" stroke="black" points="0,-0.5 0,-30.5 185,-30.5 185,-0.5 0,-0.5"/>
<text text-anchor="start" x="8" y="-18.5" font-family="Helvetica,sans-Serif" font-size="10.00">DIRE_NS::TypedProperty</text>
<text text-anchor="middle" x="92.5" y="-7.5" font-family="Helvetica,sans-Serif" font-size="10.00">&lt; TOwner, TProp, MetadataType &gt;</text>
</a>
</g>
</g>
<!-- Node1&#45;&gt;Node3 -->
<g id="edge2" class="edge">
<title>Node1&#45;&gt;Node3</title>
<path fill="none" stroke="midnightblue" d="M92.5,-57.23C92.5,-48.59 92.5,-38.5 92.5,-30.52"/>
<polygon fill="midnightblue" stroke="midnightblue" points="89,-57.48 92.5,-67.48 96,-57.48 89,-57.48"/>
</g>
<!-- Node2 -->
<g id="node2" class="node">
<title>Node2</title>
<g id="a_node2"><a xlink:href="classDIRE__NS_1_1IntrusiveListNode.html" target="_top" xlink:title=" ">
<polygon fill="none" stroke="black" points="17.5,-123.5 17.5,-153.5 167.5,-153.5 167.5,-123.5 17.5,-123.5"/>
<text text-anchor="start" x="25.5" y="-141.5" font-family="Helvetica,sans-Serif" font-size="10.00">DIRE_NS::IntrusiveListNode</text>
<text text-anchor="middle" x="92.5" y="-130.5" font-family="Helvetica,sans-Serif" font-size="10.00">&lt; PropertyTypeInfo &gt;</text>
</a>
</g>
</g>
<!-- Node2&#45;&gt;Node1 -->
<g id="edge1" class="edge">
<title>Node2&#45;&gt;Node1</title>
<path fill="none" stroke="midnightblue" d="M92.5,-113.29C92.5,-103.86 92.5,-93.65 92.5,-86.66"/>
<polygon fill="midnightblue" stroke="midnightblue" points="89,-113.4 92.5,-123.4 96,-113.4 89,-113.4"/>
</g>
</g>
</svg>
