<?xml version="1.0" encoding="UTF-8" standalone="no"?>
<!DOCTYPE svg PUBLIC "-//W3C//DTD SVG 1.1//EN"
 "http://www.w3.org/Graphics/SVG/1.1/DTD/svg11.dtd">
<!-- Generated by graphviz version 2.43.0 (0)
 -->
<!-- Title: DIRE_NS::FunctionInfo Pages: 1 -->
<svg width="326pt" height="95pt"
 viewBox="0.00 0.00 326.00 95.00" xmlns="http://www.w3.org/2000/svg" xmlns:xlink="http://www.w3.org/1999/xlink">
<g id="graph0" class="graph" transform="scale(1 1) rotate(0) translate(4 91)">
<title>DIRE_NS::FunctionInfo</title>
<!-- Node1 -->
<g id="node1" class="node">
<title>Node1</title>
<g id="a_node1"><a xlink:title="An abstract type that stores data and defines functions common to all types of function infos....">
<polygon fill="#bfbfbf" stroke="black" points="96.5,-0.5 96.5,-19.5 221.5,-19.5 221.5,-0.5 96.5,-0.5"/>
<text text-anchor="middle" x="159" y="-7.5" font-family="Helvetica,sans-Serif" font-size="10.00">DIRE_NS::FunctionInfo</text>
</a>
</g>
</g>
<!-- Node2 -->
<g id="node2" class="node">
<title>Node2</title>
<g id="a_node2"><a xlink:href="classDIRE__NS_1_1IntrusiveListNode.html" target="_top" xlink:title=" ">
<polygon fill="none" stroke="black" points="0,-56.5 0,-86.5 150,-86.5 150,-56.5 0,-56.5"/>
<text text-anchor="start" x="8" y="-74.5" font-family="Helvetica,sans-Serif" font-size="10.00">DIRE_NS::IntrusiveListNode</text>
<text text-anchor="middle" x="75" y="-63.5" font-family="Helvetica,sans-Serif" font-size="10.00">&lt; FunctionInfo &gt;</text>
</a>
</g>
</g>
<!-- Node2&#45;&gt;Node1 -->
<g id="edge1" class="edge">
<title>Node2&#45;&gt;Node1</title>
<path fill="none" stroke="midnightblue" d="M103.26,-50.48C118.06,-40 135.41,-27.71 146.78,-19.66"/>
<polygon fill="midnightblue" stroke="midnightblue" points="101.04,-47.76 94.91,-56.4 105.09,-53.48 101.04,-47.76"/>
</g>
<!-- Node3 -->
<g id="node3" class="node">
<title>Node3</title>
<g id="a_node3"><a xlink:href="classDIRE__NS_1_1IFunctionTypeInfo.html" target="_top" xlink:title="The base interface for storing class member function info. It provides the Invoke method that allows ...">
<polygon fill="none" stroke="black" points="168,-62 168,-81 318,-81 318,-62 168,-62"/>
<text text-anchor="middle" x="243" y="-69" font-family="Helvetica,sans-Serif" font-size="10.00">DIRE_NS::IFunctionTypeInfo</text>
</a>
</g>
</g>
<!-- Node3&#45;&gt;Node1 -->
<g id="edge2" class="edge">
<title>Node3&#45;&gt;Node1</title>
<path fill="none" stroke="#8b1a1a" d="M222.69,-56.11C206.53,-44.67 184.48,-29.05 171.01,-19.51"/>
<polygon fill="#8b1a1a" stroke="#8b1a1a" points="220.78,-59.05 230.96,-61.98 224.83,-53.34 220.78,-59.05"/>
</g>
</g>
</svg>
