<?xml version="1.0" encoding="UTF-8" standalone="no"?>
<!DOCTYPE svg PUBLIC "-//W3C//DTD SVG 1.1//EN"
 "http://www.w3.org/Graphics/SVG/1.1/DTD/svg11.dtd">
<!-- Generated by graphviz version 7.1.0 (20230121.1956)
 -->
<!-- Title: DIRE_NS::TypedProperty&lt; TOwner, TProp, MetadataType &gt; Pages: 1 -->
<svg width="214pt" height="227pt"
 viewBox="0.00 0.00 214.00 227.00" xmlns="http://www.w3.org/2000/svg" xmlns:xlink="http://www.w3.org/1999/xlink">
<g id="graph0" class="graph" transform="scale(1 1) rotate(0) translate(4 223)">
<title>DIRE_NS::TypedProperty&lt; TOwner, TProp, MetadataType &gt;</title>
<!-- Node1 -->
<g id="node1" class="node">
<title>Node1</title>
<g id="a_node1"><a xlink:title="The property template declared by DIRE_PROPERTY. Never use this type directly, use the macro.">
<polygon fill="#999999" stroke="#666666" points="167,-30 0,-30 0,0 167,0 167,-30"/>
<text text-anchor="start" x="8" y="-18" font-family="Helvetica,sans-Serif" font-size="10.00">DIRE_NS::TypedProperty</text>
<text text-anchor="middle" x="83.5" y="-7" font-family="Helvetica,sans-Serif" font-size="10.00">&lt; TOwner, TProp, MetadataType &gt;</text>
</a>
</g>
</g>
<!-- Node2 -->
<g id="node2" class="node">
<title>Node2</title>
<g id="a_node2"><a xlink:href="class_d_i_r_e___n_s_1_1_property_type_info.html" target="_top" xlink:title="The base class for Dire to store information of properties. Never use it directly: it is to be inheri...">
<polygon fill="white" stroke="#666666" points="152,-86 15,-86 15,-67 152,-67 152,-86"/>
<text text-anchor="middle" x="83.5" y="-74" font-family="Helvetica,sans-Serif" font-size="10.00">DIRE_NS::PropertyTypeInfo</text>
</a>
</g>
</g>
<!-- Node2&#45;&gt;Node1 -->
<g id="edge1" class="edge">
<title>Node2&#45;&gt;Node1</title>
<path fill="none" stroke="#63b8ff" d="M83.5,-55.46C83.5,-47.23 83.5,-37.89 83.5,-30.36"/>
<polygon fill="#63b8ff" stroke="#63b8ff" points="80,-55.21 83.5,-65.21 87,-55.21 80,-55.21"/>
</g>
<!-- Node3 -->
<g id="node3" class="node">
<title>Node3</title>
<g id="a_node3"><a xlink:href="class_d_i_r_e___n_s_1_1_intrusive_list_node.html" target="_top" xlink:title=" ">
<polygon fill="white" stroke="#666666" points="152,-153 15,-153 15,-123 152,-123 152,-153"/>
<text text-anchor="start" x="23" y="-141" font-family="Helvetica,sans-Serif" font-size="10.00">DIRE_NS::IntrusiveListNode</text>
<text text-anchor="middle" x="83.5" y="-130" font-family="Helvetica,sans-Serif" font-size="10.00">&lt; PropertyTypeInfo &gt;</text>
</a>
</g>
</g>
<!-- Node3&#45;&gt;Node2 -->
<g id="edge2" class="edge">
<title>Node3&#45;&gt;Node2</title>
<path fill="none" stroke="#63b8ff" d="M83.5,-111.13C83.5,-102.29 83.5,-92.99 83.5,-86.42"/>
<polygon fill="#63b8ff" stroke="#63b8ff" points="80,-111.08 83.5,-121.08 87,-111.08 80,-111.08"/>
</g>
<!-- Node4 -->
<g id="node4" class="node">
<title>Node4</title>
<g id="a_node4"><a xlink:href="class_d_i_r_e___n_s_1_1_intrusive_list_node.html" target="_top" xlink:title="Basic implementation of an intrusive node, designed to reside in the user class. Nodes are bound to e...">
<polygon fill="white" stroke="#666666" points="164,-219 3,-219 3,-200 164,-200 164,-219"/>
<text text-anchor="middle" x="83.5" y="-207" font-family="Helvetica,sans-Serif" font-size="10.00">DIRE_NS::IntrusiveListNode&lt; T &gt;</text>
</a>
</g>
</g>
<!-- Node4&#45;&gt;Node3 -->
<g id="edge3" class="edge">
<title>Node4&#45;&gt;Node3</title>
<path fill="none" stroke="#9a32cd" stroke-dasharray="5,2" d="M83.5,-188.39C83.5,-177.15 83.5,-163.41 83.5,-153.27"/>
<polygon fill="#9a32cd" stroke="#9a32cd" points="80,-188.18 83.5,-198.18 87,-188.18 80,-188.18"/>
<text text-anchor="middle" x="95.5" y="-174" font-family="Helvetica,sans-Serif" font-size="10.00"> Next</text>
</g>
<!-- Node4&#45;&gt;Node4 -->
<g id="edge4" class="edge">
<title>Node4&#45;&gt;Node4</title>
<path fill="none" stroke="#9a32cd" stroke-dasharray="5,2" d="M175.58,-213.3C179.64,-212.33 182,-211.07 182,-209.5 182,-206.79 174.93,-204.97 164.27,-204.04"/>
<polygon fill="#9a32cd" stroke="#9a32cd" points="175.16,-209.83 165.77,-214.74 176.17,-216.76 175.16,-209.83"/>
<text text-anchor="middle" x="194" y="-207" font-family="Helvetica,sans-Serif" font-size="10.00"> Next</text>
</g>
</g>
</svg>
