<?xml version="1.0" encoding="UTF-8" standalone="no"?>
<!DOCTYPE svg PUBLIC "-//W3C//DTD SVG 1.1//EN"
 "http://www.w3.org/Graphics/SVG/1.1/DTD/svg11.dtd">
<!-- Generated by graphviz version 2.43.0 (0)
 -->
<!-- Title: DIRE_NS::TypedTypeInfo&lt; T, UseDefaultCtorForInstantiate &gt; Pages: 1 -->
<svg width="674pt" height="88pt"
 viewBox="0.00 0.00 674.00 88.00" xmlns="http://www.w3.org/2000/svg" xmlns:xlink="http://www.w3.org/1999/xlink">
<g id="graph0" class="graph" transform="scale(1 1) rotate(0) translate(4 84)">
<title>DIRE_NS::TypedTypeInfo&lt; T, UseDefaultCtorForInstantiate &gt;</title>
<!-- Node1 -->
<g id="node1" class="node">
<title>Node1</title>
<g id="a_node1"><a xlink:title="The metadata type declared by DIRE_TYPE_INFO and DIRE_REFLECTABLE_INFO. Never use directly,...">
<polygon fill="#bfbfbf" stroke="black" points="472,-24.5 472,-54.5 666,-54.5 666,-24.5 472,-24.5"/>
<text text-anchor="start" x="480" y="-42.5" font-family="Helvetica,sans-Serif" font-size="10.00">DIRE_NS::TypedTypeInfo</text>
<text text-anchor="middle" x="569" y="-31.5" font-family="Helvetica,sans-Serif" font-size="10.00">&lt; T, UseDefaultCtorForInstantiate &gt;</text>
</a>
</g>
</g>
<!-- Node2 -->
<g id="node2" class="node">
<title>Node2</title>
<g id="a_node2"><a xlink:href="classDIRE__NS_1_1TypeInfo.html" target="_top" xlink:title=" ">
<polygon fill="none" stroke="black" points="329,-30 329,-49 435,-49 435,-30 329,-30"/>
<text text-anchor="middle" x="382" y="-37" font-family="Helvetica,sans-Serif" font-size="10.00">DIRE_NS::TypeInfo</text>
</a>
</g>
</g>
<!-- Node2&#45;&gt;Node1 -->
<g id="edge1" class="edge">
<title>Node2&#45;&gt;Node1</title>
<path fill="none" stroke="midnightblue" d="M445.27,-39.5C453.85,-39.5 462.82,-39.5 471.84,-39.5"/>
<polygon fill="midnightblue" stroke="midnightblue" points="445.03,-36 435.03,-39.5 445.03,-43 445.03,-36"/>
</g>
<!-- Node3 -->
<g id="node3" class="node">
<title>Node3</title>
<g id="a_node3"><a xlink:href="classDIRE__NS_1_1IntrusiveLinkedList.html" target="_top" xlink:title=" ">
<polygon fill="none" stroke="black" points="11.5,-49.5 11.5,-79.5 175.5,-79.5 175.5,-49.5 11.5,-49.5"/>
<text text-anchor="start" x="19.5" y="-67.5" font-family="Helvetica,sans-Serif" font-size="10.00">DIRE_NS::IntrusiveLinked</text>
<text text-anchor="middle" x="93.5" y="-56.5" font-family="Helvetica,sans-Serif" font-size="10.00">List&lt; DIRE_NS::FunctionInfo &gt;</text>
</a>
</g>
</g>
<!-- Node3&#45;&gt;Node2 -->
<g id="edge2" class="edge">
<title>Node3&#45;&gt;Node2</title>
<path fill="none" stroke="#9a32cd" stroke-dasharray="5,2" d="M186.07,-56.51C233.24,-52.39 289.05,-47.52 328.84,-44.05"/>
<polygon fill="#9a32cd" stroke="#9a32cd" points="185.49,-53.05 175.83,-57.4 186.1,-60.02 185.49,-53.05"/>
<text text-anchor="middle" x="258" y="-56.5" font-family="Helvetica,sans-Serif" font-size="10.00"> myMemberFunctions</text>
</g>
<!-- Node4 -->
<g id="node4" class="node">
<title>Node4</title>
<g id="a_node4"><a xlink:href="classDIRE__NS_1_1IntrusiveLinkedList.html" target="_top" xlink:title=" ">
<polygon fill="none" stroke="black" points="0,-0.5 0,-30.5 187,-30.5 187,-0.5 0,-0.5"/>
<text text-anchor="start" x="8" y="-18.5" font-family="Helvetica,sans-Serif" font-size="10.00">DIRE_NS::IntrusiveLinked</text>
<text text-anchor="middle" x="93.5" y="-7.5" font-family="Helvetica,sans-Serif" font-size="10.00">List&lt; DIRE_NS::PropertyTypeInfo &gt;</text>
</a>
</g>
</g>
<!-- Node4&#45;&gt;Node2 -->
<g id="edge3" class="edge">
<title>Node4&#45;&gt;Node2</title>
<path fill="none" stroke="#9a32cd" stroke-dasharray="5,2" d="M197.05,-22.23C233.1,-24.82 273.87,-28.01 311,-31.5 316.72,-32.04 322.71,-32.65 328.66,-33.29"/>
<polygon fill="#9a32cd" stroke="#9a32cd" points="197.24,-18.74 187.01,-21.52 196.74,-25.72 197.24,-18.74"/>
<text text-anchor="middle" x="258" y="-34.5" font-family="Helvetica,sans-Serif" font-size="10.00"> myProperties</text>
</g>
</g>
</svg>
