<?xml version="1.0" encoding="UTF-8" standalone="no"?>
<!DOCTYPE svg PUBLIC "-//W3C//DTD SVG 1.1//EN"
 "http://www.w3.org/Graphics/SVG/1.1/DTD/svg11.dtd">
<!-- Generated by graphviz version 7.1.0 (20230121.1956)
 -->
<!-- Title: DIRE_NS::FunctionInfo Pages: 1 -->
<svg width="316pt" height="160pt"
 viewBox="0.00 0.00 315.50 160.00" xmlns="http://www.w3.org/2000/svg" xmlns:xlink="http://www.w3.org/1999/xlink">
<g id="graph0" class="graph" transform="scale(1 1) rotate(0) translate(4 156)">
<title>DIRE_NS::FunctionInfo</title>
<!-- Node1 -->
<g id="node1" class="node">
<title>Node1</title>
<g id="a_node1"><a xlink:title="An abstract type that stores data and defines functions common to all types of function infos....">
<polygon fill="#999999" stroke="#666666" points="216.5,-19 100.5,-19 100.5,0 216.5,0 216.5,-19"/>
<text text-anchor="middle" x="158.5" y="-7" font-family="Helvetica,sans-Serif" font-size="10.00">DIRE_NS::FunctionInfo</text>
</a>
</g>
</g>
<!-- Node2 -->
<g id="node2" class="node">
<title>Node2</title>
<g id="a_node2"><a xlink:href="class_d_i_r_e___n_s_1_1_intrusive_list_node.html" target="_top" xlink:title=" ">
<polygon fill="white" stroke="#666666" points="149,-86 12,-86 12,-56 149,-56 149,-86"/>
<text text-anchor="start" x="20" y="-74" font-family="Helvetica,sans-Serif" font-size="10.00">DIRE_NS::IntrusiveListNode</text>
<text text-anchor="middle" x="80.5" y="-63" font-family="Helvetica,sans-Serif" font-size="10.00">&lt; FunctionInfo &gt;</text>
</a>
</g>
</g>
<!-- Node2&#45;&gt;Node1 -->
<g id="edge1" class="edge">
<title>Node2&#45;&gt;Node1</title>
<path fill="none" stroke="#63b8ff" d="M108.18,-48.89C121.44,-38.77 136.62,-27.19 146.81,-19.42"/>
<polygon fill="#63b8ff" stroke="#63b8ff" points="106.41,-45.83 100.59,-54.68 110.66,-51.4 106.41,-45.83"/>
</g>
<!-- Node3 -->
<g id="node3" class="node">
<title>Node3</title>
<g id="a_node3"><a xlink:href="class_d_i_r_e___n_s_1_1_intrusive_list_node.html" target="_top" xlink:title="Basic implementation of an intrusive node, designed to reside in the user class. Nodes are bound to e...">
<polygon fill="white" stroke="#666666" points="161,-152 0,-152 0,-133 161,-133 161,-152"/>
<text text-anchor="middle" x="80.5" y="-140" font-family="Helvetica,sans-Serif" font-size="10.00">DIRE_NS::IntrusiveListNode&lt; T &gt;</text>
</a>
</g>
</g>
<!-- Node3&#45;&gt;Node2 -->
<g id="edge2" class="edge">
<title>Node3&#45;&gt;Node2</title>
<path fill="none" stroke="#9a32cd" stroke-dasharray="5,2" d="M80.5,-121.39C80.5,-110.15 80.5,-96.41 80.5,-86.27"/>
<polygon fill="#9a32cd" stroke="#9a32cd" points="77,-121.18 80.5,-131.18 84,-121.18 77,-121.18"/>
<text text-anchor="middle" x="92.5" y="-107" font-family="Helvetica,sans-Serif" font-size="10.00"> Next</text>
</g>
<!-- Node3&#45;&gt;Node3 -->
<g id="edge3" class="edge">
<title>Node3&#45;&gt;Node3</title>
<path fill="none" stroke="#9a32cd" stroke-dasharray="5,2" d="M172.58,-146.3C176.64,-145.33 179,-144.07 179,-142.5 179,-139.79 171.93,-137.97 161.27,-137.04"/>
<polygon fill="#9a32cd" stroke="#9a32cd" points="172.16,-142.83 162.77,-147.74 173.17,-149.76 172.16,-142.83"/>
<text text-anchor="middle" x="191" y="-140" font-family="Helvetica,sans-Serif" font-size="10.00"> Next</text>
</g>
<!-- Node4 -->
<g id="node4" class="node">
<title>Node4</title>
<g id="a_node4"><a xlink:href="class_d_i_r_e___n_s_1_1_i_function_type_info.html" target="_top" xlink:title="The base interface for storing class member function info. It provides the Invoke method that allows ...">
<polygon fill="white" stroke="#666666" points="307.5,-80.5 167.5,-80.5 167.5,-61.5 307.5,-61.5 307.5,-80.5"/>
<text text-anchor="middle" x="237.5" y="-68.5" font-family="Helvetica,sans-Serif" font-size="10.00">DIRE_NS::IFunctionTypeInfo</text>
</a>
</g>
</g>
<!-- Node4&#45;&gt;Node1 -->
<g id="edge4" class="edge">
<title>Node4&#45;&gt;Node1</title>
<path fill="none" stroke="#8b1a1a" d="M216.87,-54.46C202,-43.27 182.48,-28.56 170.2,-19.32"/>
<polygon fill="#8b1a1a" stroke="#8b1a1a" points="214.54,-57.09 224.63,-60.31 218.75,-51.5 214.54,-57.09"/>
</g>
</g>
</svg>
