<?xml version="1.0" encoding="UTF-8" standalone="no"?>
<!DOCTYPE svg PUBLIC "-//W3C//DTD SVG 1.1//EN"
 "http://www.w3.org/Graphics/SVG/1.1/DTD/svg11.dtd">
<!-- Generated by graphviz version 7.1.0 (20230121.1956)
 -->
<!-- Title: DIRE_NS::IntrusiveListNode&lt; T &gt; Pages: 1 -->
<svg width="211pt" height="93pt"
 viewBox="0.00 0.00 211.00 93.00" xmlns="http://www.w3.org/2000/svg" xmlns:xlink="http://www.w3.org/1999/xlink">
<g id="graph0" class="graph" transform="scale(1 1) rotate(0) translate(4 89)">
<title>DIRE_NS::IntrusiveListNode&lt; T &gt;</title>
<!-- Node1 -->
<g id="node1" class="node">
<title>Node1</title>
<g id="a_node1"><a xlink:title="Basic implementation of an intrusive node, designed to reside in the user class. Nodes are bound to e...">
<polygon fill="#999999" stroke="#666666" points="161,-19 0,-19 0,0 161,0 161,-19"/>
<text text-anchor="middle" x="80.5" y="-7" font-family="Helvetica,sans-Serif" font-size="10.00">DIRE_NS::IntrusiveListNode&lt; T &gt;</text>
</a>
</g>
</g>
<!-- Node2 -->
<g id="node2" class="node">
<title>Node2</title>
<g id="a_node2"><a xlink:href="class_d_i_r_e___n_s_1_1_intrusive_list_node.html" target="_top" xlink:title="Basic implementation of an intrusive node, designed to reside in the user class. Nodes are bound to e...">
<polygon fill="white" stroke="#666666" points="161,-85 0,-85 0,-66 161,-66 161,-85"/>
<text text-anchor="middle" x="80.5" y="-73" font-family="Helvetica,sans-Serif" font-size="10.00">DIRE_NS::IntrusiveListNode&lt; T &gt;</text>
</a>
</g>
</g>
<!-- Node2&#45;&gt;Node1 -->
<g id="edge1" class="edge">
<title>Node2&#45;&gt;Node1</title>
<path fill="none" stroke="#9a32cd" stroke-dasharray="5,2" d="M80.5,-54.18C80.5,-42.44 80.5,-28.27 80.5,-19.32"/>
<polygon fill="#9a32cd" stroke="#9a32cd" points="77,-54.09 80.5,-64.09 84,-54.09 77,-54.09"/>
<text text-anchor="middle" x="92.5" y="-40" font-family="Helvetica,sans-Serif" font-size="10.00"> Next</text>
</g>
<!-- Node2&#45;&gt;Node2 -->
<g id="edge2" class="edge">
<title>Node2&#45;&gt;Node2</title>
<path fill="none" stroke="#9a32cd" stroke-dasharray="5,2" d="M172.58,-79.3C176.64,-78.33 179,-77.07 179,-75.5 179,-72.79 171.93,-70.97 161.27,-70.04"/>
<polygon fill="#9a32cd" stroke="#9a32cd" points="172.16,-75.83 162.77,-80.74 173.17,-82.76 172.16,-75.83"/>
<text text-anchor="middle" x="191" y="-73" font-family="Helvetica,sans-Serif" font-size="10.00"> Next</text>
</g>
</g>
</svg>
