<?xml version="1.0" encoding="UTF-8" standalone="no"?>
<!DOCTYPE svg PUBLIC "-//W3C//DTD SVG 1.1//EN"
 "http://www.w3.org/Graphics/SVG/1.1/DTD/svg11.dtd">
<!-- Generated by graphviz version 2.43.0 (0)
 -->
<!-- Title: DIRE_NS::TypedArrayDataStructureHandler&lt; T, typename std::enable_if_t&lt; std::is_array_v&lt; T &gt; &gt; &gt; Pages: 1 -->
<svg width="195pt" height="195pt"
 viewBox="0.00 0.00 195.00 195.00" xmlns="http://www.w3.org/2000/svg" xmlns:xlink="http://www.w3.org/1999/xlink">
<g id="graph0" class="graph" transform="scale(1 1) rotate(0) translate(4 191)">
<title>DIRE_NS::TypedArrayDataStructureHandler&lt; T, typename std::enable_if_t&lt; std::is_array_v&lt; T &gt; &gt; &gt;</title>
<!-- Node1 -->
<g id="node1" class="node">
<title>Node1</title>
<g id="a_node1"><a xlink:title="Type&#45;erased array handler for reflectable properties that are static arrays.">
<polygon fill="#bfbfbf" stroke="black" points="0,-0.5 0,-52.5 187,-52.5 187,-0.5 0,-0.5"/>
<text text-anchor="start" x="8" y="-40.5" font-family="Helvetica,sans-Serif" font-size="10.00">DIRE_NS::TypedArrayDataStructure</text>
<text text-anchor="start" x="8" y="-29.5" font-family="Helvetica,sans-Serif" font-size="10.00">Handler&lt; T, typename std::</text>
<text text-anchor="start" x="8" y="-18.5" font-family="Helvetica,sans-Serif" font-size="10.00">enable_if_t&lt; std::is_array</text>
<text text-anchor="middle" x="93.5" y="-7.5" font-family="Helvetica,sans-Serif" font-size="10.00">_v&lt; T &gt; &gt; &gt;</text>
</a>
</g>
</g>
<!-- Node2 -->
<g id="node2" class="node">
<title>Node2</title>
<g id="a_node2"><a xlink:href="classDIRE__NS_1_1AbstractArrayDataStructureHandler.html" target="_top" xlink:title="An intermediate wrapper for functions common to both types of array handlers.">
<polygon fill="none" stroke="black" points="16,-89.5 16,-119.5 171,-119.5 171,-89.5 16,-89.5"/>
<text text-anchor="start" x="24" y="-107.5" font-family="Helvetica,sans-Serif" font-size="10.00">DIRE_NS::AbstractArrayData</text>
<text text-anchor="middle" x="93.5" y="-96.5" font-family="Helvetica,sans-Serif" font-size="10.00">StructureHandler</text>
</a>
</g>
</g>
<!-- Node2&#45;&gt;Node1 -->
<g id="edge1" class="edge">
<title>Node2&#45;&gt;Node1</title>
<path fill="none" stroke="midnightblue" d="M93.5,-79.14C93.5,-70.63 93.5,-61.07 93.5,-52.5"/>
<polygon fill="midnightblue" stroke="midnightblue" points="90,-79.2 93.5,-89.2 97,-79.21 90,-79.2"/>
</g>
<!-- Node3 -->
<g id="node3" class="node">
<title>Node3</title>
<g id="a_node3"><a xlink:href="classDIRE__NS_1_1IArrayDataStructureHandler.html" target="_top" xlink:title="Generic interface for type&#45;erased array handlers. This class will be derived by handlers for both sta...">
<polygon fill="none" stroke="black" points="13,-156.5 13,-186.5 174,-186.5 174,-156.5 13,-156.5"/>
<text text-anchor="start" x="21" y="-174.5" font-family="Helvetica,sans-Serif" font-size="10.00">DIRE_NS::IArrayDataStructure</text>
<text text-anchor="middle" x="93.5" y="-163.5" font-family="Helvetica,sans-Serif" font-size="10.00">Handler</text>
</a>
</g>
</g>
<!-- Node3&#45;&gt;Node2 -->
<g id="edge2" class="edge">
<title>Node3&#45;&gt;Node2</title>
<path fill="none" stroke="midnightblue" d="M93.5,-146.11C93.5,-137.15 93.5,-127.32 93.5,-119.58"/>
<polygon fill="midnightblue" stroke="midnightblue" points="90,-146.4 93.5,-156.4 97,-146.4 90,-146.4"/>
</g>
</g>
</svg>
