<?xml version="1.0" encoding="UTF-8" standalone="no"?>
<!DOCTYPE svg PUBLIC "-//W3C//DTD SVG 1.1//EN"
 "http://www.w3.org/Graphics/SVG/1.1/DTD/svg11.dtd">
<!-- Generated by graphviz version 7.1.0 (20230121.1956)
 -->
<!-- Title: DIRE_NS::AbstractArrayDataStructureHandler Pages: 1 -->
<svg width="546pt" height="130pt"
 viewBox="0.00 0.00 546.00 130.00" xmlns="http://www.w3.org/2000/svg" xmlns:xlink="http://www.w3.org/1999/xlink">
<g id="graph0" class="graph" transform="scale(1 1) rotate(0) translate(4 126)">
<title>DIRE_NS::AbstractArrayDataStructureHandler</title>
<!-- Node1 -->
<g id="node1" class="node">
<title>Node1</title>
<g id="a_node1"><a xlink:title="An intermediate wrapper for functions common to both types of array handlers.">
<polygon fill="#999999" stroke="#666666" points="329,-76 185,-76 185,-46 329,-46 329,-76"/>
<text text-anchor="start" x="193" y="-64" font-family="Helvetica,sans-Serif" font-size="10.00">DIRE_NS::AbstractArrayData</text>
<text text-anchor="middle" x="257" y="-53" font-family="Helvetica,sans-Serif" font-size="10.00">StructureHandler</text>
</a>
</g>
</g>
<!-- Node3 -->
<g id="node3" class="node">
<title>Node3</title>
<g id="a_node3"><a xlink:href="class_d_i_r_e___n_s_1_1_typed_array_data_structure_handler_3_01_t_00_01typename_01std_1_1enable_a4d5ed6e76b41c492a4b113da534bb1d.html" target="_top" xlink:title="Type&#45;erased array handler for reflectable properties that have all the traits of an Array (e....">
<polygon fill="white" stroke="#666666" points="538,-122 365,-122 365,-70 538,-70 538,-122"/>
<text text-anchor="start" x="373" y="-110" font-family="Helvetica,sans-Serif" font-size="10.00">DIRE_NS::TypedArrayDataStructure</text>
<text text-anchor="start" x="373" y="-99" font-family="Helvetica,sans-Serif" font-size="10.00">Handler&lt; T, typename std::</text>
<text text-anchor="start" x="373" y="-88" font-family="Helvetica,sans-Serif" font-size="10.00">enable_if_t&lt; HasArraySemantics</text>
<text text-anchor="middle" x="451.5" y="-77" font-family="Helvetica,sans-Serif" font-size="10.00">_v&lt; T &gt; &amp;&amp;!std::is_array_v&lt; T &gt; &gt; &gt;</text>
</a>
</g>
</g>
<!-- Node1&#45;&gt;Node3 -->
<g id="edge2" class="edge">
<title>Node1&#45;&gt;Node3</title>
<path fill="none" stroke="#63b8ff" d="M340.54,-76.01C348.49,-77.45 356.57,-78.92 364.55,-80.37"/>
<polygon fill="#63b8ff" stroke="#63b8ff" points="341.36,-72.6 330.9,-74.25 340.11,-79.49 341.36,-72.6"/>
</g>
<!-- Node4 -->
<g id="node4" class="node">
<title>Node4</title>
<g id="a_node4"><a xlink:href="class_d_i_r_e___n_s_1_1_typed_array_data_structure_handler_3_01_t_00_01typename_01std_1_1enable_32d8376242d1ac9c61937646bd6bcbdb.html" target="_top" xlink:title="Type&#45;erased array handler for reflectable properties that are static arrays.">
<polygon fill="white" stroke="#666666" points="538,-52 365,-52 365,0 538,0 538,-52"/>
<text text-anchor="start" x="373" y="-40" font-family="Helvetica,sans-Serif" font-size="10.00">DIRE_NS::TypedArrayDataStructure</text>
<text text-anchor="start" x="373" y="-29" font-family="Helvetica,sans-Serif" font-size="10.00">Handler&lt; T, typename std::</text>
<text text-anchor="start" x="373" y="-18" font-family="Helvetica,sans-Serif" font-size="10.00">enable_if_t&lt; std::is_array</text>
<text text-anchor="middle" x="451.5" y="-7" font-family="Helvetica,sans-Serif" font-size="10.00">_v&lt; T &gt; &gt; &gt;</text>
</a>
</g>
</g>
<!-- Node1&#45;&gt;Node4 -->
<g id="edge3" class="edge">
<title>Node1&#45;&gt;Node4</title>
<path fill="none" stroke="#63b8ff" d="M340.54,-45.99C348.49,-44.55 356.57,-43.08 364.55,-41.63"/>
<polygon fill="#63b8ff" stroke="#63b8ff" points="340.11,-42.51 330.9,-47.75 341.36,-49.4 340.11,-42.51"/>
</g>
<!-- Node2 -->
<g id="node2" class="node">
<title>Node2</title>
<g id="a_node2"><a xlink:href="class_d_i_r_e___n_s_1_1_i_array_data_structure_handler.html" target="_top" xlink:title="Generic interface for type&#45;erased array handlers. This class will be derived by handlers for both sta...">
<polygon fill="white" stroke="#666666" points="149,-76 0,-76 0,-46 149,-46 149,-76"/>
<text text-anchor="start" x="8" y="-64" font-family="Helvetica,sans-Serif" font-size="10.00">DIRE_NS::IArrayDataStructure</text>
<text text-anchor="middle" x="74.5" y="-53" font-family="Helvetica,sans-Serif" font-size="10.00">Handler</text>
</a>
</g>
</g>
<!-- Node2&#45;&gt;Node1 -->
<g id="edge1" class="edge">
<title>Node2&#45;&gt;Node1</title>
<path fill="none" stroke="#63b8ff" d="M160.93,-61C168.82,-61 176.76,-61 184.51,-61"/>
<polygon fill="#63b8ff" stroke="#63b8ff" points="160.95,-57.5 150.95,-61 160.95,-64.5 160.95,-57.5"/>
</g>
</g>
</svg>
