<?xml version="1.0" encoding="UTF-8" standalone="no"?>
<!DOCTYPE svg PUBLIC "-//W3C//DTD SVG 1.1//EN"
 "http://www.w3.org/Graphics/SVG/1.1/DTD/svg11.dtd">
<!-- Generated by graphviz version 7.1.0 (20230121.1956)
 -->
<!-- Title: DIRE_NS::PropertyTypeInfo Pages: 1 -->
<svg width="211pt" height="160pt"
 viewBox="0.00 0.00 211.00 160.00" xmlns="http://www.w3.org/2000/svg" xmlns:xlink="http://www.w3.org/1999/xlink">
<g id="graph0" class="graph" transform="scale(1 1) rotate(0) translate(4 156)">
<title>DIRE_NS::PropertyTypeInfo</title>
<!-- Node1 -->
<g id="node1" class="node">
<title>Node1</title>
<g id="a_node1"><a xlink:title="The base class for Dire to store information of properties. Never use it directly: it is to be inheri...">
<polygon fill="#999999" stroke="#666666" points="149,-19 12,-19 12,0 149,0 149,-19"/>
<text text-anchor="middle" x="80.5" y="-7" font-family="Helvetica,sans-Serif" font-size="10.00">DIRE_NS::PropertyTypeInfo</text>
</a>
</g>
</g>
<!-- Node2 -->
<g id="node2" class="node">
<title>Node2</title>
<g id="a_node2"><a xlink:href="class_d_i_r_e___n_s_1_1_intrusive_list_node.html" target="_top" xlink:title=" ">
<polygon fill="white" stroke="#666666" points="149,-86 12,-86 12,-56 149,-56 149,-86"/>
<text text-anchor="start" x="20" y="-74" font-family="Helvetica,sans-Serif" font-size="10.00">DIRE_NS::IntrusiveListNode</text>
<text text-anchor="middle" x="80.5" y="-63" font-family="Helvetica,sans-Serif" font-size="10.00">&lt; PropertyTypeInfo &gt;</text>
</a>
</g>
</g>
<!-- Node2&#45;&gt;Node1 -->
<g id="edge1" class="edge">
<title>Node2&#45;&gt;Node1</title>
<path fill="none" stroke="#63b8ff" d="M80.5,-44.13C80.5,-35.29 80.5,-25.99 80.5,-19.42"/>
<polygon fill="#63b8ff" stroke="#63b8ff" points="77,-44.08 80.5,-54.08 84,-44.08 77,-44.08"/>
</g>
<!-- Node3 -->
<g id="node3" class="node">
<title>Node3</title>
<g id="a_node3"><a xlink:href="class_d_i_r_e___n_s_1_1_intrusive_list_node.html" target="_top" xlink:title="Basic implementation of an intrusive node, designed to reside in the user class. Nodes are bound to e...">
<polygon fill="white" stroke="#666666" points="161,-152 0,-152 0,-133 161,-133 161,-152"/>
<text text-anchor="middle" x="80.5" y="-140" font-family="Helvetica,sans-Serif" font-size="10.00">DIRE_NS::IntrusiveListNode&lt; T &gt;</text>
</a>
</g>
</g>
<!-- Node3&#45;&gt;Node2 -->
<g id="edge2" class="edge">
<title>Node3&#45;&gt;Node2</title>
<path fill="none" stroke="#9a32cd" stroke-dasharray="5,2" d="M80.5,-121.39C80.5,-110.15 80.5,-96.41 80.5,-86.27"/>
<polygon fill="#9a32cd" stroke="#9a32cd" points="77,-121.18 80.5,-131.18 84,-121.18 77,-121.18"/>
<text text-anchor="middle" x="92.5" y="-107" font-family="Helvetica,sans-Serif" font-size="10.00"> Next</text>
</g>
<!-- Node3&#45;&gt;Node3 -->
<g id="edge3" class="edge">
<title>Node3&#45;&gt;Node3</title>
<path fill="none" stroke="#9a32cd" stroke-dasharray="5,2" d="M172.58,-146.3C176.64,-145.33 179,-144.07 179,-142.5 179,-139.79 171.93,-137.97 161.27,-137.04"/>
<polygon fill="#9a32cd" stroke="#9a32cd" points="172.16,-142.83 162.77,-147.74 173.17,-149.76 172.16,-142.83"/>
<text text-anchor="middle" x="191" y="-140" font-family="Helvetica,sans-Serif" font-size="10.00"> Next</text>
</g>
</g>
</svg>
