<?xml version="1.0" encoding="UTF-8" standalone="no"?>
<!DOCTYPE svg PUBLIC "-//W3C//DTD SVG 1.1//EN"
 "http://www.w3.org/Graphics/SVG/1.1/DTD/svg11.dtd">
<!-- Generated by graphviz version 7.1.0 (20230121.1956)
 -->
<!-- Title: DIRE_NS::PropertyTypeInfo Pages: 1 -->
<svg width="175pt" height="159pt"
 viewBox="0.00 0.00 175.00 159.00" xmlns="http://www.w3.org/2000/svg" xmlns:xlink="http://www.w3.org/1999/xlink">
<g id="graph0" class="graph" transform="scale(1 1) rotate(0) translate(4 155)">
<title>DIRE_NS::PropertyTypeInfo</title>
<!-- Node1 -->
<g id="node1" class="node">
<title>Node1</title>
<g id="a_node1"><a xlink:title="The base class for Dire to store information of properties. Never use it directly: it is to be inheri...">
<polygon fill="#999999" stroke="#666666" points="152,-85 15,-85 15,-66 152,-66 152,-85"/>
<text text-anchor="middle" x="83.5" y="-73" font-family="Helvetica,sans-Serif" font-size="10.00">DIRE_NS::PropertyTypeInfo</text>
</a>
</g>
</g>
<!-- Node3 -->
<g id="node3" class="node">
<title>Node3</title>
<g id="a_node3"><a xlink:href="class_d_i_r_e___n_s_1_1_typed_property.html" target="_top" xlink:title="The property template declared by DIRE_PROPERTY. Never use this type directly, use the macro.">
<polygon fill="white" stroke="#666666" points="167,-30 0,-30 0,0 167,0 167,-30"/>
<text text-anchor="start" x="8" y="-18" font-family="Helvetica,sans-Serif" font-size="10.00">DIRE_NS::TypedProperty</text>
<text text-anchor="middle" x="83.5" y="-7" font-family="Helvetica,sans-Serif" font-size="10.00">&lt; TOwner, TProp, MetadataType &gt;</text>
</a>
</g>
</g>
<!-- Node1&#45;&gt;Node3 -->
<g id="edge2" class="edge">
<title>Node1&#45;&gt;Node3</title>
<path fill="none" stroke="#63b8ff" d="M83.5,-54.51C83.5,-46.49 83.5,-37.43 83.5,-30.11"/>
<polygon fill="#63b8ff" stroke="#63b8ff" points="80,-54.35 83.5,-64.35 87,-54.35 80,-54.35"/>
</g>
<!-- Node2 -->
<g id="node2" class="node">
<title>Node2</title>
<g id="a_node2"><a xlink:href="class_d_i_r_e___n_s_1_1_intrusive_list_node.html" target="_top" xlink:title=" ">
<polygon fill="white" stroke="#666666" points="152,-151 15,-151 15,-121 152,-121 152,-151"/>
<text text-anchor="start" x="23" y="-139" font-family="Helvetica,sans-Serif" font-size="10.00">DIRE_NS::IntrusiveListNode</text>
<text text-anchor="middle" x="83.5" y="-128" font-family="Helvetica,sans-Serif" font-size="10.00">&lt; PropertyTypeInfo &gt;</text>
</a>
</g>
</g>
<!-- Node2&#45;&gt;Node1 -->
<g id="edge1" class="edge">
<title>Node2&#45;&gt;Node1</title>
<path fill="none" stroke="#63b8ff" d="M83.5,-109.3C83.5,-100.65 83.5,-91.58 83.5,-85.18"/>
<polygon fill="#63b8ff" stroke="#63b8ff" points="80,-109.03 83.5,-119.03 87,-109.03 80,-109.03"/>
</g>
</g>
</svg>
