<?xml version="1.0" encoding="UTF-8" standalone="no"?>
<!DOCTYPE svg PUBLIC "-//W3C//DTD SVG 1.1//EN"
 "http://www.w3.org/Graphics/SVG/1.1/DTD/svg11.dtd">
<!-- Generated by graphviz version 7.1.0 (20230121.1956)
 -->
<!-- Title: Graphical Class Hierarchy Pages: 1 -->
<svg width="521pt" height="38pt"
 viewBox="0.00 0.00 521.00 38.00" xmlns="http://www.w3.org/2000/svg" xmlns:xlink="http://www.w3.org/1999/xlink">
<g id="graph0" class="graph" transform="scale(1 1) rotate(0) translate(4 34)">
<title>Graphical Class Hierarchy</title>
<!-- Node0 -->
<g id="node1" class="node">
<title>Node0</title>
<g id="a_node1"><a xlink:href="class_d_i_r_e___n_s_1_1_intrusive_list_node.html" target="_top" xlink:title=" ">
<polygon fill="white" stroke="#666666" points="137,-30 0,-30 0,0 137,0 137,-30"/>
<text text-anchor="start" x="8" y="-18" font-family="Helvetica,sans-Serif" font-size="10.00">DIRE_NS::IntrusiveListNode</text>
<text text-anchor="middle" x="68.5" y="-7" font-family="Helvetica,sans-Serif" font-size="10.00">&lt; PropertyTypeInfo &gt;</text>
</a>
</g>
</g>
<!-- Node1 -->
<g id="node2" class="node">
<title>Node1</title>
<g id="a_node2"><a xlink:href="class_d_i_r_e___n_s_1_1_property_type_info.html" target="_top" xlink:title="The base class for Dire to store information of properties. Never use it directly: it is to be inheri...">
<polygon fill="white" stroke="#666666" points="310,-24.5 173,-24.5 173,-5.5 310,-5.5 310,-24.5"/>
<text text-anchor="middle" x="241.5" y="-12.5" font-family="Helvetica,sans-Serif" font-size="10.00">DIRE_NS::PropertyTypeInfo</text>
</a>
</g>
</g>
<!-- Node0&#45;&gt;Node1 -->
<g id="edge1" class="edge">
<title>Node0&#45;&gt;Node1</title>
<path fill="none" stroke="#63b8ff" d="M148.41,-15C156.48,-15 164.63,-15 172.57,-15"/>
<polygon fill="#63b8ff" stroke="#63b8ff" points="148.6,-11.5 138.6,-15 148.6,-18.5 148.6,-11.5"/>
</g>
<!-- Node2 -->
<g id="node3" class="node">
<title>Node2</title>
<g id="a_node3"><a xlink:href="class_d_i_r_e___n_s_1_1_typed_property.html" target="_top" xlink:title="The property template declared by DIRE_PROPERTY. Never use this type directly, use the macro.">
<polygon fill="white" stroke="#666666" points="513,-30 346,-30 346,0 513,0 513,-30"/>
<text text-anchor="start" x="354" y="-18" font-family="Helvetica,sans-Serif" font-size="10.00">DIRE_NS::TypedProperty</text>
<text text-anchor="middle" x="429.5" y="-7" font-family="Helvetica,sans-Serif" font-size="10.00">&lt; TOwner, TProp, MetadataType &gt;</text>
</a>
</g>
</g>
<!-- Node1&#45;&gt;Node2 -->
<g id="edge2" class="edge">
<title>Node1&#45;&gt;Node2</title>
<path fill="none" stroke="#63b8ff" d="M321.83,-15C329.68,-15 337.67,-15 345.56,-15"/>
<polygon fill="#63b8ff" stroke="#63b8ff" points="321.95,-11.5 311.95,-15 321.95,-18.5 321.95,-11.5"/>
</g>
</g>
</svg>
