<?xml version="1.0" encoding="UTF-8" standalone="no"?>
<!DOCTYPE svg PUBLIC "-//W3C//DTD SVG 1.1//EN"
 "http://www.w3.org/Graphics/SVG/1.1/DTD/svg11.dtd">
<!-- Generated by graphviz version 7.1.0 (20230121.1956)
 -->
<!-- Title: Graphical Class Hierarchy Pages: 1 -->
<svg width="479pt" height="76pt"
 viewBox="0.00 0.00 479.00 75.50" xmlns="http://www.w3.org/2000/svg" xmlns:xlink="http://www.w3.org/1999/xlink">
<g id="graph0" class="graph" transform="scale(1 1) rotate(0) translate(4 71.5)">
<title>Graphical Class Hierarchy</title>
<!-- Node0 -->
<g id="node1" class="node">
<title>Node0</title>
<g id="a_node1"><a xlink:href="class_d_i_r_e___n_s_1_1_i_function_type_info.html" target="_top" xlink:title="The base interface for storing class member function info. It provides the Invoke method that allows ...">
<polygon fill="white" stroke="#666666" points="140,-67.5 0,-67.5 0,-48.5 140,-48.5 140,-67.5"/>
<text text-anchor="middle" x="70" y="-55.5" font-family="Helvetica,sans-Serif" font-size="10.00">DIRE_NS::IFunctionTypeInfo</text>
</a>
</g>
</g>
<!-- Node1 -->
<g id="node2" class="node">
<title>Node1</title>
<g id="a_node2"><a xlink:href="class_d_i_r_e___n_s_1_1_function_info.html" target="_top" xlink:title="An abstract type that stores data and defines functions common to all types of function infos....">
<polygon fill="white" stroke="#666666" points="292,-45.5 176,-45.5 176,-26.5 292,-26.5 292,-45.5"/>
<text text-anchor="middle" x="234" y="-33.5" font-family="Helvetica,sans-Serif" font-size="10.00">DIRE_NS::FunctionInfo</text>
</a>
</g>
</g>
<!-- Node0&#45;&gt;Node1 -->
<g id="edge1" class="edge">
<title>Node0&#45;&gt;Node1</title>
<path fill="none" stroke="#8b1a1a" d="M151.57,-47.06C159.65,-45.96 167.74,-44.86 175.52,-43.81"/>
<polygon fill="#8b1a1a" stroke="#8b1a1a" points="151.11,-43.59 141.67,-48.4 152.05,-50.52 151.11,-43.59"/>
</g>
<!-- Node2 -->
<g id="node3" class="node">
<title>Node2</title>
<g id="a_node3"><a xlink:href="struct_d_i_r_e___n_s_1_1_typed_function_info_3_01_ret_07_class_1_1_5_08_07_args_8_8_8_08_4.html" target="_top" xlink:title="The class declared by the DIRE_FUNCTION and DIRE_TYPED_FUNCTION macros. Never use it directly,...">
<polygon fill="white" stroke="#666666" points="471,-51 328,-51 328,-21 471,-21 471,-51"/>
<text text-anchor="start" x="336" y="-39" font-family="Helvetica,sans-Serif" font-size="10.00">DIRE_NS::TypedFunctionInfo</text>
<text text-anchor="middle" x="399.5" y="-28" font-family="Helvetica,sans-Serif" font-size="10.00">&lt; Ret(Class::*)(Args...)&gt;</text>
</a>
</g>
</g>
<!-- Node1&#45;&gt;Node2 -->
<g id="edge2" class="edge">
<title>Node1&#45;&gt;Node2</title>
<path fill="none" stroke="#63b8ff" d="M303.62,-36C311.53,-36 319.6,-36 327.54,-36"/>
<polygon fill="#63b8ff" stroke="#63b8ff" points="303.7,-32.5 293.7,-36 303.7,-39.5 303.7,-32.5"/>
</g>
<!-- Node3 -->
<g id="node4" class="node">
<title>Node3</title>
<g id="a_node4"><a xlink:href="class_d_i_r_e___n_s_1_1_intrusive_list_node.html" target="_top" xlink:title=" ">
<polygon fill="white" stroke="#666666" points="138.5,-30 1.5,-30 1.5,0 138.5,0 138.5,-30"/>
<text text-anchor="start" x="9.5" y="-18" font-family="Helvetica,sans-Serif" font-size="10.00">DIRE_NS::IntrusiveListNode</text>
<text text-anchor="middle" x="70" y="-7" font-family="Helvetica,sans-Serif" font-size="10.00">&lt; FunctionInfo &gt;</text>
</a>
</g>
</g>
<!-- Node3&#45;&gt;Node1 -->
<g id="edge3" class="edge">
<title>Node3&#45;&gt;Node1</title>
<path fill="none" stroke="#63b8ff" d="M150.02,-25.24C158.62,-26.36 167.25,-27.48 175.52,-28.55"/>
<polygon fill="#63b8ff" stroke="#63b8ff" points="150.63,-21.79 140.26,-23.98 149.73,-28.74 150.63,-21.79"/>
</g>
</g>
</svg>
