<?xml version="1.0" encoding="UTF-8" standalone="no"?>
<!DOCTYPE svg PUBLIC "-//W3C//DTD SVG 1.1//EN"
 "http://www.w3.org/Graphics/SVG/1.1/DTD/svg11.dtd">
<!-- Generated by graphviz version 2.43.0 (0)
 -->
<!-- Title: Graphical Class Hierarchy Pages: 1 -->
<svg width="562pt" height="39pt"
 viewBox="0.00 0.00 562.00 39.00" xmlns="http://www.w3.org/2000/svg" xmlns:xlink="http://www.w3.org/1999/xlink">
<g id="graph0" class="graph" transform="scale(1 1) rotate(0) translate(4 35)">
<title>Graphical Class Hierarchy</title>
<!-- Node0 -->
<g id="node1" class="node">
<title>Node0</title>
<g id="a_node1"><a xlink:href="classDIRE__NS_1_1IntrusiveListNode.html" target="_top" xlink:title=" ">
<polygon fill="none" stroke="black" points="0,-0.5 0,-30.5 150,-30.5 150,-0.5 0,-0.5"/>
<text text-anchor="start" x="8" y="-18.5" font-family="Helvetica,sans-Serif" font-size="10.00">DIRE_NS::IntrusiveListNode</text>
<text text-anchor="middle" x="75" y="-7.5" font-family="Helvetica,sans-Serif" font-size="10.00">&lt; PropertyTypeInfo &gt;</text>
</a>
</g>
</g>
<!-- Node1 -->
<g id="node2" class="node">
<title>Node1</title>
<g id="a_node2"><a xlink:href="classDIRE__NS_1_1PropertyTypeInfo.html" target="_top" xlink:title="The base class for Dire to store information of properties. Never use it directly: it is to be inheri...">
<polygon fill="none" stroke="black" points="186,-6 186,-25 333,-25 333,-6 186,-6"/>
<text text-anchor="middle" x="259.5" y="-13" font-family="Helvetica,sans-Serif" font-size="10.00">DIRE_NS::PropertyTypeInfo</text>
</a>
</g>
</g>
<!-- Node0&#45;&gt;Node1 -->
<g id="edge1" class="edge">
<title>Node0&#45;&gt;Node1</title>
<path fill="none" stroke="midnightblue" d="M160.49,-15.5C168.95,-15.5 177.49,-15.5 185.81,-15.5"/>
<polygon fill="midnightblue" stroke="midnightblue" points="160.23,-12 150.23,-15.5 160.23,-19 160.23,-12"/>
</g>
<!-- Node2 -->
<g id="node3" class="node">
<title>Node2</title>
<g id="a_node3"><a xlink:href="classDIRE__NS_1_1TypedProperty.html" target="_top" xlink:title="The property template declared by DIRE_PROPERTY. Never use this type directly, use the macro.">
<polygon fill="none" stroke="black" points="369,-0.5 369,-30.5 554,-30.5 554,-0.5 369,-0.5"/>
<text text-anchor="start" x="377" y="-18.5" font-family="Helvetica,sans-Serif" font-size="10.00">DIRE_NS::TypedProperty</text>
<text text-anchor="middle" x="461.5" y="-7.5" font-family="Helvetica,sans-Serif" font-size="10.00">&lt; TOwner, TProp, MetadataType &gt;</text>
</a>
</g>
</g>
<!-- Node1&#45;&gt;Node2 -->
<g id="edge2" class="edge">
<title>Node1&#45;&gt;Node2</title>
<path fill="none" stroke="midnightblue" d="M343.36,-15.5C351.71,-15.5 360.23,-15.5 368.67,-15.5"/>
<polygon fill="midnightblue" stroke="midnightblue" points="343.27,-12 333.27,-15.5 343.27,-19 343.27,-12"/>
</g>
</g>
</svg>
