<?xml version="1.0" encoding="UTF-8" standalone="no"?>
<!DOCTYPE svg PUBLIC "-//W3C//DTD SVG 1.1//EN"
 "http://www.w3.org/Graphics/SVG/1.1/DTD/svg11.dtd">
<!-- Generated by graphviz version 2.43.0 (0)
 -->
<!-- Title: Graphical Class Hierarchy Pages: 1 -->
<svg width="508pt" height="78pt"
 viewBox="0.00 0.00 508.00 77.50" xmlns="http://www.w3.org/2000/svg" xmlns:xlink="http://www.w3.org/1999/xlink">
<g id="graph0" class="graph" transform="scale(1 1) rotate(0) translate(4 73.5)">
<title>Graphical Class Hierarchy</title>
<!-- Node0 -->
<g id="node1" class="node">
<title>Node0</title>
<g id="a_node1"><a xlink:href="classDIRE__NS_1_1IFunctionTypeInfo.html" target="_top" xlink:title="The base interface for storing class member function info. It provides the Invoke method that allows ...">
<polygon fill="none" stroke="black" points="0,-50 0,-69 150,-69 150,-50 0,-50"/>
<text text-anchor="middle" x="75" y="-57" font-family="Helvetica,sans-Serif" font-size="10.00">DIRE_NS::IFunctionTypeInfo</text>
</a>
</g>
</g>
<!-- Node1 -->
<g id="node2" class="node">
<title>Node1</title>
<g id="a_node2"><a xlink:href="classDIRE__NS_1_1FunctionInfo.html" target="_top" xlink:title="An abstract type that stores data and defines functions common to all types of function infos....">
<polygon fill="none" stroke="black" points="186,-28 186,-47 311,-47 311,-28 186,-28"/>
<text text-anchor="middle" x="248.5" y="-35" font-family="Helvetica,sans-Serif" font-size="10.00">DIRE_NS::FunctionInfo</text>
</a>
</g>
</g>
<!-- Node0&#45;&gt;Node1 -->
<g id="edge1" class="edge">
<title>Node0&#45;&gt;Node1</title>
<path fill="none" stroke="#8b1a1a" d="M160.28,-48.69C168.87,-47.59 177.48,-46.48 185.77,-45.42"/>
<polygon fill="#8b1a1a" stroke="#8b1a1a" points="159.7,-45.23 150.22,-49.98 160.59,-52.18 159.7,-45.23"/>
</g>
<!-- Node2 -->
<g id="node3" class="node">
<title>Node2</title>
<g id="a_node3"><a xlink:href="structDIRE__NS_1_1TypedFunctionInfo_3_01Ret_07Class_1_1_5_08_07Args_8_8_8_08_4.html" target="_top" xlink:title="The class declared by the DIRE_FUNCTION and DIRE_TYPED_FUNCTION macros. Never use it directly,...">
<polygon fill="none" stroke="black" points="347,-22.5 347,-52.5 500,-52.5 500,-22.5 347,-22.5"/>
<text text-anchor="start" x="355" y="-40.5" font-family="Helvetica,sans-Serif" font-size="10.00">DIRE_NS::TypedFunctionInfo</text>
<text text-anchor="middle" x="423.5" y="-29.5" font-family="Helvetica,sans-Serif" font-size="10.00">&lt; Ret(Class::*)(Args...)&gt;</text>
</a>
</g>
</g>
<!-- Node1&#45;&gt;Node2 -->
<g id="edge2" class="edge">
<title>Node1&#45;&gt;Node2</title>
<path fill="none" stroke="midnightblue" d="M321.52,-37.5C329.86,-37.5 338.38,-37.5 346.77,-37.5"/>
<polygon fill="midnightblue" stroke="midnightblue" points="321.47,-34 311.47,-37.5 321.47,-41 321.47,-34"/>
</g>
<!-- Node40 -->
<g id="node4" class="node">
<title>Node40</title>
<g id="a_node4"><a xlink:href="classDIRE__NS_1_1IntrusiveListNode.html" target="_top" xlink:title=" ">
<polygon fill="none" stroke="black" points="0,-0.5 0,-30.5 150,-30.5 150,-0.5 0,-0.5"/>
<text text-anchor="start" x="8" y="-18.5" font-family="Helvetica,sans-Serif" font-size="10.00">DIRE_NS::IntrusiveListNode</text>
<text text-anchor="middle" x="75" y="-7.5" font-family="Helvetica,sans-Serif" font-size="10.00">&lt; FunctionInfo &gt;</text>
</a>
</g>
</g>
<!-- Node40&#45;&gt;Node1 -->
<g id="edge3" class="edge">
<title>Node40&#45;&gt;Node1</title>
<path fill="none" stroke="midnightblue" d="M160.28,-26.31C168.87,-27.41 177.48,-28.52 185.77,-29.58"/>
<polygon fill="midnightblue" stroke="midnightblue" points="160.59,-22.82 150.22,-25.02 159.7,-29.77 160.59,-22.82"/>
</g>
</g>
</svg>
