<?xml version="1.0" encoding="UTF-8" standalone="no"?>
<!DOCTYPE svg PUBLIC "-//W3C//DTD SVG 1.1//EN"
 "http://www.w3.org/Graphics/SVG/1.1/DTD/svg11.dtd">
<!-- Generated by graphviz version 2.43.0 (0)
 -->
<!-- Title: DIRE_NS::TypedFunctionInfo&lt; Ret(Class::*)(Args...)&gt; Pages: 1 -->
<svg width="361pt" height="174pt"
 viewBox="0.00 0.00 361.00 174.00" xmlns="http://www.w3.org/2000/svg" xmlns:xlink="http://www.w3.org/1999/xlink">
<g id="graph0" class="graph" transform="scale(1 1) rotate(0) translate(4 170)">
<title>DIRE_NS::TypedFunctionInfo&lt; Ret(Class::*)(Args...)&gt;</title>
<!-- Node1 -->
<g id="node1" class="node">
<title>Node1</title>
<g id="a_node1"><a xlink:title="The class declared by the DIRE_FUNCTION and DIRE_TYPED_FUNCTION macros. Never use it directly,...">
<polygon fill="#bfbfbf" stroke="black" points="132.5,-0.5 132.5,-30.5 285.5,-30.5 285.5,-0.5 132.5,-0.5"/>
<text text-anchor="start" x="140.5" y="-18.5" font-family="Helvetica,sans-Serif" font-size="10.00">DIRE_NS::TypedFunctionInfo</text>
<text text-anchor="middle" x="209" y="-7.5" font-family="Helvetica,sans-Serif" font-size="10.00">&lt; Ret(Class::*)(Args...)&gt;</text>
</a>
</g>
</g>
<!-- Node2 -->
<g id="node2" class="node">
<title>Node2</title>
<g id="a_node2"><a xlink:href="classDIRE__NS_1_1FunctionInfo.html" target="_top" xlink:title="An abstract type that stores data and defines functions common to all types of function infos....">
<polygon fill="none" stroke="black" points="96.5,-78.5 96.5,-97.5 221.5,-97.5 221.5,-78.5 96.5,-78.5"/>
<text text-anchor="middle" x="159" y="-85.5" font-family="Helvetica,sans-Serif" font-size="10.00">DIRE_NS::FunctionInfo</text>
</a>
</g>
</g>
<!-- Node2&#45;&gt;Node1 -->
<g id="edge1" class="edge">
<title>Node2&#45;&gt;Node1</title>
<path fill="none" stroke="midnightblue" d="M171.03,-70.04C179.59,-57.97 190.96,-41.94 199.02,-30.58"/>
<polygon fill="midnightblue" stroke="midnightblue" points="168.06,-68.17 165.13,-78.36 173.77,-72.22 168.06,-68.17"/>
</g>
<!-- Node3 -->
<g id="node3" class="node">
<title>Node3</title>
<g id="a_node3"><a xlink:href="classDIRE__NS_1_1IntrusiveListNode.html" target="_top" xlink:title=" ">
<polygon fill="none" stroke="black" points="0,-135.5 0,-165.5 150,-165.5 150,-135.5 0,-135.5"/>
<text text-anchor="start" x="8" y="-153.5" font-family="Helvetica,sans-Serif" font-size="10.00">DIRE_NS::IntrusiveListNode</text>
<text text-anchor="middle" x="75" y="-142.5" font-family="Helvetica,sans-Serif" font-size="10.00">&lt; FunctionInfo &gt;</text>
</a>
</g>
</g>
<!-- Node3&#45;&gt;Node2 -->
<g id="edge2" class="edge">
<title>Node3&#45;&gt;Node2</title>
<path fill="none" stroke="midnightblue" d="M102.95,-129.37C117.97,-118.55 135.71,-105.78 147.14,-97.54"/>
<polygon fill="midnightblue" stroke="midnightblue" points="100.55,-126.78 94.48,-135.47 104.64,-132.46 100.55,-126.78"/>
</g>
<!-- Node4 -->
<g id="node4" class="node">
<title>Node4</title>
<g id="a_node4"><a xlink:href="classDIRE__NS_1_1IFunctionTypeInfo.html" target="_top" xlink:title="The base interface for storing class member function info. It provides the Invoke method that allows ...">
<polygon fill="none" stroke="black" points="168,-141 168,-160 318,-160 318,-141 168,-141"/>
<text text-anchor="middle" x="243" y="-148" font-family="Helvetica,sans-Serif" font-size="10.00">DIRE_NS::IFunctionTypeInfo</text>
</a>
</g>
</g>
<!-- Node4&#45;&gt;Node2 -->
<g id="edge3" class="edge">
<title>Node4&#45;&gt;Node2</title>
<path fill="none" stroke="#8b1a1a" d="M222.69,-134.87C206.53,-123.23 184.48,-107.35 171.01,-97.65"/>
<polygon fill="#8b1a1a" stroke="#8b1a1a" points="220.8,-137.83 230.96,-140.83 224.9,-132.15 220.8,-137.83"/>
</g>
<!-- Node5 -->
<g id="node5" class="node">
<title>Node5</title>
<g id="a_node5"><a xlink:title=" ">
<polygon fill="none" stroke="#bfbfbf" points="240,-78.5 240,-97.5 278,-97.5 278,-78.5 240,-78.5"/>
<text text-anchor="middle" x="259" y="-85.5" font-family="Helvetica,sans-Serif" font-size="10.00">Args</text>
</a>
</g>
</g>
<!-- Node5&#45;&gt;Node1 -->
<g id="edge4" class="edge">
<title>Node5&#45;&gt;Node1</title>
<path fill="none" stroke="#9a32cd" stroke-dasharray="5,2" d="M246.97,-70.04C238.41,-57.97 227.04,-41.94 218.98,-30.58"/>
<polygon fill="#9a32cd" stroke="#9a32cd" points="244.23,-72.22 252.87,-78.36 249.94,-68.17 244.23,-72.22"/>
<text text-anchor="middle" x="295.5" y="-52" font-family="Helvetica,sans-Serif" font-size="10.00"> myMemberFunctionPtr</text>
</g>
</g>
</svg>
