<?xml version="1.0" encoding="UTF-8" standalone="no"?>
<!DOCTYPE svg PUBLIC "-//W3C//DTD SVG 1.1//EN"
 "http://www.w3.org/Graphics/SVG/1.1/DTD/svg11.dtd">
<!-- Generated by graphviz version 7.1.0 (20230121.1956)
 -->
<!-- Title: DIRE_NS::IMetadataAttribute Pages: 1 -->
<svg width="316pt" height="150pt"
 viewBox="0.00 0.00 316.00 149.50" xmlns="http://www.w3.org/2000/svg" xmlns:xlink="http://www.w3.org/1999/xlink">
<g id="graph0" class="graph" transform="scale(1 1) rotate(0) translate(4 145.5)">
<title>DIRE_NS::IMetadataAttribute</title>
<!-- Node1 -->
<g id="node1" class="node">
<title>Node1</title>
<g id="a_node1"><a xlink:title=" ">
<polygon fill="#999999" stroke="#666666" points="143,-74 0,-74 0,-55 143,-55 143,-74"/>
<text text-anchor="middle" x="71.5" y="-62" font-family="Helvetica,sans-Serif" font-size="10.00">DIRE_NS::IMetadataAttribute</text>
</a>
</g>
</g>
<!-- Node2 -->
<g id="node2" class="node">
<title>Node2</title>
<g id="a_node2"><a xlink:href="struct_d_i_r_e___n_s_1_1_i_value_range.html" target="_top" xlink:title=" ">
<polygon fill="white" stroke="#bfbfbf" points="303,-141.5 184,-141.5 184,-111.5 303,-111.5 303,-141.5"/>
<text text-anchor="start" x="192" y="-129.5" font-family="Helvetica,sans-Serif" font-size="10.00">DIRE_NS::IValueRange</text>
<text text-anchor="middle" x="243.5" y="-118.5" font-family="Helvetica,sans-Serif" font-size="10.00">&lt; Min, Max &gt;</text>
</a>
</g>
</g>
<!-- Node1&#45;&gt;Node2 -->
<g id="edge1" class="edge">
<title>Node1&#45;&gt;Node2</title>
<path fill="none" stroke="#63b8ff" d="M110.28,-78.28C136.95,-88 172.71,-101.05 200.31,-111.11"/>
<polygon fill="#63b8ff" stroke="#63b8ff" points="111.83,-75.12 101.24,-74.98 109.43,-81.69 111.83,-75.12"/>
</g>
<!-- Node3 -->
<g id="node3" class="node">
<title>Node3</title>
<g id="a_node3"><a xlink:href="struct_d_i_r_e___n_s_1_1_not_serializable.html" target="_top" xlink:title=" ">
<polygon fill="white" stroke="#bfbfbf" points="308,-93 179,-93 179,-74 308,-74 308,-93"/>
<text text-anchor="middle" x="243.5" y="-81" font-family="Helvetica,sans-Serif" font-size="10.00">DIRE_NS::NotSerializable</text>
</a>
</g>
</g>
<!-- Node1&#45;&gt;Node3 -->
<g id="edge2" class="edge">
<title>Node1&#45;&gt;Node3</title>
<path fill="none" stroke="#63b8ff" d="M154.51,-73.67C162.61,-74.57 170.74,-75.48 178.62,-76.36"/>
<polygon fill="#63b8ff" stroke="#63b8ff" points="154.95,-70.19 144.62,-72.56 154.17,-77.15 154.95,-70.19"/>
</g>
<!-- Node4 -->
<g id="node4" class="node">
<title>Node4</title>
<g id="a_node4"><a xlink:href="struct_d_i_r_e___n_s_1_1_serializable.html" target="_top" xlink:title=" ">
<polygon fill="white" stroke="#bfbfbf" points="300.5,-56 186.5,-56 186.5,-37 300.5,-37 300.5,-56"/>
<text text-anchor="middle" x="243.5" y="-44" font-family="Helvetica,sans-Serif" font-size="10.00">DIRE_NS::Serializable</text>
</a>
</g>
</g>
<!-- Node1&#45;&gt;Node4 -->
<g id="edge3" class="edge">
<title>Node1&#45;&gt;Node4</title>
<path fill="none" stroke="#63b8ff" d="M154.28,-55.84C165.04,-54.7 175.87,-53.55 186.08,-52.47"/>
<polygon fill="#63b8ff" stroke="#63b8ff" points="154.2,-52.33 144.62,-56.86 154.94,-59.29 154.2,-52.33"/>
</g>
<!-- Node5 -->
<g id="node5" class="node">
<title>Node5</title>
<g id="a_node5"><a xlink:href="struct_d_i_r_e___n_s_1_1_transient.html" target="_top" xlink:title=" ">
<polygon fill="white" stroke="#bfbfbf" points="295.5,-19 191.5,-19 191.5,0 295.5,0 295.5,-19"/>
<text text-anchor="middle" x="243.5" y="-7" font-family="Helvetica,sans-Serif" font-size="10.00">DIRE_NS::Transient</text>
</a>
</g>
</g>
<!-- Node1&#45;&gt;Node5 -->
<g id="edge4" class="edge">
<title>Node1&#45;&gt;Node5</title>
<path fill="none" stroke="#63b8ff" d="M111.51,-50.95C131.62,-44.05 156.56,-35.65 179,-28.5 188.54,-25.46 198.93,-22.29 208.49,-19.44"/>
<polygon fill="#63b8ff" stroke="#63b8ff" points="110.64,-47.55 102.32,-54.11 112.91,-54.16 110.64,-47.55"/>
</g>
</g>
</svg>
