<?xml version="1.0" encoding="UTF-8" standalone="no"?>
<!DOCTYPE svg PUBLIC "-//W3C//DTD SVG 1.1//EN"
 "http://www.w3.org/Graphics/SVG/1.1/DTD/svg11.dtd">
<!-- Generated by graphviz version 2.43.0 (0)
 -->
<!-- Title: DIRE_NS::IMetadataAttribute Pages: 1 -->
<svg width="340pt" height="154pt"
 viewBox="0.00 0.00 340.00 153.50" xmlns="http://www.w3.org/2000/svg" xmlns:xlink="http://www.w3.org/1999/xlink">
<g id="graph0" class="graph" transform="scale(1 1) rotate(0) translate(4 149.5)">
<title>DIRE_NS::IMetadataAttribute</title>
<!-- Node1 -->
<g id="node1" class="node">
<title>Node1</title>
<g id="a_node1"><a xlink:title=" ">
<polygon fill="#bfbfbf" stroke="black" points="0,-57.5 0,-76.5 157,-76.5 157,-57.5 0,-57.5"/>
<text text-anchor="middle" x="78.5" y="-64.5" font-family="Helvetica,sans-Serif" font-size="10.00">DIRE_NS::IMetadataAttribute</text>
</a>
</g>
</g>
<!-- Node2 -->
<g id="node2" class="node">
<title>Node2</title>
<g id="a_node2"><a xlink:href="structDIRE__NS_1_1IValueRange.html" target="_top" xlink:title=" ">
<polygon fill="none" stroke="black" points="200,-115 200,-145 325,-145 325,-115 200,-115"/>
<text text-anchor="start" x="208" y="-133" font-family="Helvetica,sans-Serif" font-size="10.00">DIRE_NS::IValueRange</text>
<text text-anchor="middle" x="262.5" y="-122" font-family="Helvetica,sans-Serif" font-size="10.00">&lt; Min, Max &gt;</text>
</a>
</g>
</g>
<!-- Node1&#45;&gt;Node2 -->
<g id="edge1" class="edge">
<title>Node1&#45;&gt;Node2</title>
<path fill="none" stroke="midnightblue" d="M116.62,-79.85C145.99,-90.02 187.06,-104.23 217.98,-114.93"/>
<polygon fill="midnightblue" stroke="midnightblue" points="117.74,-76.53 107.14,-76.57 115.45,-83.15 117.74,-76.53"/>
</g>
<!-- Node3 -->
<g id="node3" class="node">
<title>Node3</title>
<g id="a_node3"><a xlink:href="structDIRE__NS_1_1NotSerializable.html" target="_top" xlink:title=" ">
<polygon fill="none" stroke="black" points="193,-76.5 193,-95.5 332,-95.5 332,-76.5 193,-76.5"/>
<text text-anchor="middle" x="262.5" y="-83.5" font-family="Helvetica,sans-Serif" font-size="10.00">DIRE_NS::NotSerializable</text>
</a>
</g>
</g>
<!-- Node1&#45;&gt;Node3 -->
<g id="edge2" class="edge">
<title>Node1&#45;&gt;Node3</title>
<path fill="none" stroke="midnightblue" d="M167.29,-76.17C175.91,-77.07 184.57,-77.97 192.96,-78.84"/>
<polygon fill="midnightblue" stroke="midnightblue" points="167.52,-72.67 157.21,-75.11 166.79,-79.63 167.52,-72.67"/>
</g>
<!-- Node4 -->
<g id="node4" class="node">
<title>Node4</title>
<g id="a_node4"><a xlink:href="structDIRE__NS_1_1Serializable.html" target="_top" xlink:title=" ">
<polygon fill="none" stroke="black" points="201.5,-38.5 201.5,-57.5 323.5,-57.5 323.5,-38.5 201.5,-38.5"/>
<text text-anchor="middle" x="262.5" y="-45.5" font-family="Helvetica,sans-Serif" font-size="10.00">DIRE_NS::Serializable</text>
</a>
</g>
</g>
<!-- Node1&#45;&gt;Node4 -->
<g id="edge3" class="edge">
<title>Node1&#45;&gt;Node4</title>
<path fill="none" stroke="midnightblue" d="M167.31,-57.83C178.85,-56.63 190.46,-55.42 201.39,-54.28"/>
<polygon fill="midnightblue" stroke="midnightblue" points="166.79,-54.37 157.21,-58.89 167.52,-61.33 166.79,-54.37"/>
</g>
<!-- Node5 -->
<g id="node5" class="node">
<title>Node5</title>
<g id="a_node5"><a xlink:href="structDIRE__NS_1_1Transient.html" target="_top" xlink:title=" ">
<polygon fill="none" stroke="black" points="208,-0.5 208,-19.5 317,-19.5 317,-0.5 208,-0.5"/>
<text text-anchor="middle" x="262.5" y="-7.5" font-family="Helvetica,sans-Serif" font-size="10.00">DIRE_NS::Transient</text>
</a>
</g>
</g>
<!-- Node1&#45;&gt;Node5 -->
<g id="edge4" class="edge">
<title>Node1&#45;&gt;Node5</title>
<path fill="none" stroke="midnightblue" d="M116.55,-54.05C138.65,-46.46 167.32,-36.85 193,-29 203.62,-25.75 215.24,-22.44 225.84,-19.51"/>
<polygon fill="midnightblue" stroke="midnightblue" points="115.2,-50.81 106.89,-57.38 117.49,-57.43 115.2,-50.81"/>
</g>
</g>
</svg>
