<?xml version="1.0" encoding="UTF-8" standalone="no"?>
<!DOCTYPE svg PUBLIC "-//W3C//DTD SVG 1.1//EN"
 "http://www.w3.org/Graphics/SVG/1.1/DTD/svg11.dtd">
<!-- Generated by graphviz version 7.1.0 (20230121.1956)
 -->
<!-- Title: DIRE_NS::TypedFunctionInfo&lt; Ret(Class::*)(Args...)&gt; Pages: 1 -->
<svg width="345pt" height="237pt"
 viewBox="0.00 0.00 344.50 237.00" xmlns="http://www.w3.org/2000/svg" xmlns:xlink="http://www.w3.org/1999/xlink">
<g id="graph0" class="graph" transform="scale(1 1) rotate(0) translate(4 233)">
<title>DIRE_NS::TypedFunctionInfo&lt; Ret(Class::*)(Args...)&gt;</title>
<!-- Node1 -->
<g id="node1" class="node">
<title>Node1</title>
<g id="a_node1"><a xlink:title="The class declared by the DIRE_FUNCTION and DIRE_TYPED_FUNCTION macros. Never use it directly,...">
<polygon fill="#999999" stroke="#666666" points="277,-30 134,-30 134,0 277,0 277,-30"/>
<text text-anchor="start" x="142" y="-18" font-family="Helvetica,sans-Serif" font-size="10.00">DIRE_NS::TypedFunctionInfo</text>
<text text-anchor="middle" x="205.5" y="-7" font-family="Helvetica,sans-Serif" font-size="10.00">&lt; Ret(Class::*)(Args...)&gt;</text>
</a>
</g>
</g>
<!-- Node2 -->
<g id="node2" class="node">
<title>Node2</title>
<g id="a_node2"><a xlink:href="class_d_i_r_e___n_s_1_1_function_info.html" target="_top" xlink:title="An abstract type that stores data and defines functions common to all types of function infos....">
<polygon fill="white" stroke="#666666" points="216.5,-96 100.5,-96 100.5,-77 216.5,-77 216.5,-96"/>
<text text-anchor="middle" x="158.5" y="-84" font-family="Helvetica,sans-Serif" font-size="10.00">DIRE_NS::FunctionInfo</text>
</a>
</g>
</g>
<!-- Node2&#45;&gt;Node1 -->
<g id="edge1" class="edge">
<title>Node2&#45;&gt;Node1</title>
<path fill="none" stroke="#63b8ff" d="M170.89,-67.19C178.69,-55.64 188.63,-40.95 195.85,-30.27"/>
<polygon fill="#63b8ff" stroke="#63b8ff" points="168,-65.2 165.3,-75.44 173.8,-69.12 168,-65.2"/>
</g>
<!-- Node3 -->
<g id="node3" class="node">
<title>Node3</title>
<g id="a_node3"><a xlink:href="class_d_i_r_e___n_s_1_1_intrusive_list_node.html" target="_top" xlink:title=" ">
<polygon fill="white" stroke="#666666" points="149,-163 12,-163 12,-133 149,-133 149,-163"/>
<text text-anchor="start" x="20" y="-151" font-family="Helvetica,sans-Serif" font-size="10.00">DIRE_NS::IntrusiveListNode</text>
<text text-anchor="middle" x="80.5" y="-140" font-family="Helvetica,sans-Serif" font-size="10.00">&lt; FunctionInfo &gt;</text>
</a>
</g>
</g>
<!-- Node3&#45;&gt;Node2 -->
<g id="edge2" class="edge">
<title>Node3&#45;&gt;Node2</title>
<path fill="none" stroke="#63b8ff" d="M108.18,-125.89C121.44,-115.77 136.62,-104.19 146.81,-96.42"/>
<polygon fill="#63b8ff" stroke="#63b8ff" points="106.41,-122.83 100.59,-131.68 110.66,-128.4 106.41,-122.83"/>
</g>
<!-- Node4 -->
<g id="node4" class="node">
<title>Node4</title>
<g id="a_node4"><a xlink:href="class_d_i_r_e___n_s_1_1_intrusive_list_node.html" target="_top" xlink:title="Basic implementation of an intrusive node, designed to reside in the user class. Nodes are bound to e...">
<polygon fill="white" stroke="#666666" points="161,-229 0,-229 0,-210 161,-210 161,-229"/>
<text text-anchor="middle" x="80.5" y="-217" font-family="Helvetica,sans-Serif" font-size="10.00">DIRE_NS::IntrusiveListNode&lt; T &gt;</text>
</a>
</g>
</g>
<!-- Node4&#45;&gt;Node3 -->
<g id="edge3" class="edge">
<title>Node4&#45;&gt;Node3</title>
<path fill="none" stroke="#9a32cd" stroke-dasharray="5,2" d="M80.5,-198.39C80.5,-187.15 80.5,-173.41 80.5,-163.27"/>
<polygon fill="#9a32cd" stroke="#9a32cd" points="77,-198.18 80.5,-208.18 84,-198.18 77,-198.18"/>
<text text-anchor="middle" x="92.5" y="-184" font-family="Helvetica,sans-Serif" font-size="10.00"> Next</text>
</g>
<!-- Node4&#45;&gt;Node4 -->
<g id="edge4" class="edge">
<title>Node4&#45;&gt;Node4</title>
<path fill="none" stroke="#9a32cd" stroke-dasharray="5,2" d="M172.58,-223.3C176.64,-222.33 179,-221.07 179,-219.5 179,-216.79 171.93,-214.97 161.27,-214.04"/>
<polygon fill="#9a32cd" stroke="#9a32cd" points="172.16,-219.83 162.77,-224.74 173.17,-226.76 172.16,-219.83"/>
<text text-anchor="middle" x="191" y="-217" font-family="Helvetica,sans-Serif" font-size="10.00"> Next</text>
</g>
<!-- Node5 -->
<g id="node5" class="node">
<title>Node5</title>
<g id="a_node5"><a xlink:href="class_d_i_r_e___n_s_1_1_i_function_type_info.html" target="_top" xlink:title="The base interface for storing class member function info. It provides the Invoke method that allows ...">
<polygon fill="white" stroke="#666666" points="307.5,-157.5 167.5,-157.5 167.5,-138.5 307.5,-138.5 307.5,-157.5"/>
<text text-anchor="middle" x="237.5" y="-145.5" font-family="Helvetica,sans-Serif" font-size="10.00">DIRE_NS::IFunctionTypeInfo</text>
</a>
</g>
</g>
<!-- Node5&#45;&gt;Node2 -->
<g id="edge5" class="edge">
<title>Node5&#45;&gt;Node2</title>
<path fill="none" stroke="#8b1a1a" d="M216.87,-131.46C202,-120.27 182.48,-105.56 170.2,-96.32"/>
<polygon fill="#8b1a1a" stroke="#8b1a1a" points="214.54,-134.09 224.63,-137.31 218.75,-128.5 214.54,-134.09"/>
</g>
<!-- Node6 -->
<g id="node6" class="node">
<title>Node6</title>
<g id="a_node6"><a xlink:title=" ">
<polygon fill="white" stroke="#bfbfbf" points="272,-96 235,-96 235,-77 272,-77 272,-96"/>
<text text-anchor="middle" x="253.5" y="-84" font-family="Helvetica,sans-Serif" font-size="10.00">Args</text>
</a>
</g>
</g>
<!-- Node6&#45;&gt;Node1 -->
<g id="edge6" class="edge">
<title>Node6&#45;&gt;Node1</title>
<path fill="none" stroke="#9a32cd" stroke-dasharray="5,2" d="M241.09,-67.54C233.09,-55.94 222.81,-41.06 215.36,-30.27"/>
<polygon fill="#9a32cd" stroke="#9a32cd" points="238,-69.21 246.56,-75.45 243.76,-65.24 238,-69.21"/>
<text text-anchor="middle" x="285" y="-51" font-family="Helvetica,sans-Serif" font-size="10.00"> myMemberFunctionPtr</text>
</g>
</g>
</svg>
